<svg width="172px" height="37px" version="1.1" viewBox="634 20 172 37" xmlns="http://www.w3.org/2000/svg" xmlns:xlink="http://www.w3.org/1999/xlink"><defs><polygon id="b" points="23.515 0.27771 0.061501 0.27771 0.061501 26.325 23.515 26.325"/><polygon id="a" points="0 35.357 171.86 35.357 171.86 0.27771 0 0.27771"/></defs><g transform="translate(634 20)" fill="none" fill-rule="evenodd"><g fill="#F4F4F4"><polygon points="148.41 34.983 152.33 34.983 156.53 25.555 160.28 17.221 167.88 34.983 171.86 34.983 160.35 8.9354"/><polygon points="100.79 10.47 100.79 31.502 107.89 31.502 107.89 34.978 97.151 34.978 97.151 10.47"/><polygon points="127.14 10.47 127.14 31.502 134.23 31.502 134.23 34.978 123.5 34.978 123.5 10.47"/></g><g transform="translate(0 .065565)"><path d="m45.546 10.404v15.857c0 1.8945-0.1301 3.3071-0.39063 4.2384-0.2602 1.0583-0.70287 1.9522-1.328 2.6823-1.2189 1.45-2.8338 2.1746-4.8437 2.1746-1.5213 0-2.9433-0.40197-4.2662-1.2063l1.7815-3.1588c0.88568 0.60313 1.7136 0.90486 2.4847 0.90486 1.083 0 1.8332-0.41776 2.2499-1.254 0.4376-0.83586 0.65624-2.2961 0.65624-4.3812v-15.857h3.6563z" fill="#F4F4F4"/><polygon points="17.594 10.374 17.594 27.393 1.5805 10.374 1.0138e-4 10.374 1.0138e-4 34.866 3.6405 34.866 3.6405 17.71 19.825 34.866 21.235 34.866 21.235 10.374" fill="#F4F4F4"/><g transform="translate(58.46)"><mask id="d" fill="white"><use xlink:href="#b"/></mask><polygon points="3.983 26.325 0.061501 26.325 11.999 0.27753 23.515 26.325 19.531 26.325 11.937 8.5634 8.1864 16.897" fill="#19D6AC" mask="url(#d)"/></g><mask id="c" fill="white"><use xlink:href="#a"/></mask><polygon points="68.428 34.912 72.069 34.912 72.069 24.13 68.428 24.13" fill="#F4F4F4" mask="url(#c)"/></g></g></svg>