<?xml version="1.0" encoding="UTF-8"?>
<!DOCTYPE svg PUBLIC "-//W3C//DTD SVG 1.1//EN" "http://www.w3.org/Graphics/SVG/1.1/DTD/svg11.dtd">
<svg xmlns="http://www.w3.org/2000/svg" version="1.1" width="420px" height="420px" style="shape-rendering:geometricPrecision; text-rendering:geometricPrecision; image-rendering:optimizeQuality; fill-rule:evenodd; clip-rule:evenodd" xmlns:xlink="http://www.w3.org/1999/xlink">
<g><path style="opacity:0.998" fill="#f0f0f0" d="M 81.5,-0.5 C 166.833,-0.5 252.167,-0.5 337.5,-0.5C 386.5,5.16667 413.833,32.5 419.5,81.5C 419.5,166.833 419.5,252.167 419.5,337.5C 413.833,386.5 386.5,413.833 337.5,419.5C 252.167,419.5 166.833,419.5 81.5,419.5C 32.5,413.833 5.16667,386.5 -0.5,337.5C -0.5,252.167 -0.5,166.833 -0.5,81.5C 5.16667,32.5 32.5,5.16667 81.5,-0.5 Z"/></g>
<g><path style="opacity:1" fill="#91d88e" d="M 34.5,104.5 C 151.5,104.5 268.5,104.5 385.5,104.5C 385.5,128.167 385.5,151.833 385.5,175.5C 268.5,175.5 151.5,175.5 34.5,175.5C 34.5,151.833 34.5,128.167 34.5,104.5 Z"/></g>
<g><path style="opacity:1" fill="#91d88e" d="M 174.5,244.5 C 198.167,244.5 221.833,244.5 245.5,244.5C 245.5,267.833 245.5,291.167 245.5,314.5C 292.167,314.5 338.833,314.5 385.5,314.5C 385.5,338.167 385.5,361.833 385.5,385.5C 338.5,385.5 291.5,385.5 244.5,385.5C 244.5,362.167 244.5,338.833 244.5,315.5C 221.5,315.5 198.5,315.5 175.5,315.5C 175.5,338.833 175.5,362.167 175.5,385.5C 128.5,385.5 81.5,385.5 34.5,385.5C 34.5,361.833 34.5,338.167 34.5,314.5C 81.1667,314.5 127.833,314.5 174.5,314.5C 174.5,291.167 174.5,267.833 174.5,244.5 Z"/></g>
</svg>
