<svg xmlns="http://www.w3.org/2000/svg" width="1024" height="481" style="shape-rendering:geometricPrecision;text-rendering:geometricPrecision;image-rendering:optimizeQuality;fill-rule:evenodd;clip-rule:evenodd"><path style="opacity:1" d="M-.5-.5h1024v481H-.5V-.5Z"/><path style="opacity:1" fill="#888" d="M140.5 69.5h-33v344h33c.667 0 1 .333 1 1h-35v-346c11.512-.328 22.846.005 34 1Z"/><path style="opacity:1" fill="#878787" d="M881.5 68.5h35v346h-35c0-.667.333-1 1-1h33v-344h-33v8h22c-7.482.992-15.148 1.325-23 1-1.333-3.333-1.333-6.667 0-10Z"/><path style="opacity:1" fill="#7a7a7a" d="M141.5 78.5c-7.852.325-15.518-.008-23-1h22v-8c-11.154-.995-22.488-1.328-34-1v346h35c-11.822.995-23.822 1.328-36 1v-348c12.005-.166 24.005 0 36 .5 1.32 3.601 1.32 7.101 0 10.5Z"/><path style="opacity:1" fill="#fdfdfd" d="M140.5 69.5v8h-22a13446.893 13446.893 0 0 0-2 328h24v8h-33v-344h33ZM882.5 413.5v-8h24c.665-109.672-.002-219.005-2-328h-22v-8h33v344h-33Z"/><path style="opacity:1" fill="#797979" d="M881.5 68.5c11.822-.995 23.822-1.328 36-1v348c-12.178.328-24.178-.005-36-1h35v-346h-35Z"/><path style="opacity:1" fill="#7f7f7f" d="M118.5 77.5c7.482.992 15.148 1.325 23 1-7.482.992-15.148 1.325-23 1v324c7.674-.166 15.341 0 23 .5 1.32 3.601 1.32 7.101 0 10.5 0-.667-.333-1-1-1v-8h-24c-.665-109.672.002-219.005 2-328ZM904.5 77.5a13446.893 13446.893 0 0 1 2 328h-24v8c-.667 0-1 .333-1 1-1.32-3.399-1.32-6.899 0-10.5 7.659-.5 15.326-.666 23-.5v-324c-7.852.325-15.518-.008-23-1 7.852.325 15.518-.008 23-1Z"/><path style="opacity:1" fill="#6f6f6f" d="M688.5 133.5c0 .667.333 1 1 1v28c-.667 0-1 .333-1 1-1.333-10-1.333-20 0-30Z"/><path style="opacity:1" fill="#eaeaea" d="M689.5 134.5c11.512-.328 22.846.005 34 1h-33v26h33c-11.154.995-22.488 1.328-34 1v-28Z"/><path style="opacity:1" fill="#fefefe" d="M723.5 135.5v26h-33v-26h33Z"/><path style="opacity:1" fill="#2a2a2a" d="M557.5 144.5c.995 11.154 1.328 22.488 1 34 7.519-.325 14.852.008 22 1h-23v-35Z"/><path style="opacity:1" fill="#909090" d="M688.5 133.5h36v30h-36c0-.667.333-1 1-1 11.512.328 22.846-.005 34-1v-26c-11.154-.995-22.488-1.328-34-1-.667 0-1-.333-1-1Z"/><path style="opacity:1" fill="#6d6d6d" d="M688.5 133.5a342.787 342.787 0 0 1 37-1v32a342.787 342.787 0 0 1-37-1h36v-30h-36Z"/><path style="opacity:1" fill="#7a7a7a" d="M688.5 179.5h37c.167 42.001 0 84.001-.5 126a171.668 171.668 0 0 1-37 0 2662.99 2662.99 0 0 1 .5-126Z"/><path style="opacity:1" fill="#fefefe" d="M690.5 181.5h33v122h-33v-122Z"/><path style="opacity:1" fill="#dadada" d="M690.5 181.5v122h33c-11.154.995-22.488 1.328-34 1-.332-41.17.001-82.17 1-123Z"/><path style="opacity:1" fill="#777" d="M739.5 179.5c14.004-.167 28.004 0 42 .5a287.649 287.649 0 0 0 20 28.5 1245.278 1245.278 0 0 0 20-28.5 400.05 400.05 0 0 1 40 0c1.035 1.507.868 3.007-.5 4.5L822.5 239l42.5 60.5c1.751 1.712 2.418 3.712 2 6a290.256 290.256 0 0 1-41.5.5 2130.73 2130.73 0 0 1-24.5-36.5L776.5 306a400.05 400.05 0 0 1-40 0c-1.172-1.868-1.005-3.702.5-5.5a1502.83 1502.83 0 0 0 41.5-61 2547.852 2547.852 0 0 0-38.5-56 8.43 8.43 0 0 1-.5-4Z"/><path style="opacity:1" fill="#fdfdfd" d="M822.5 181.5a342.787 342.787 0 0 1 37 1 3348.21 3348.21 0 0 0-39 56.5 6938.98 6938.98 0 0 0 44 64.5 241.183 241.183 0 0 1-38 .5 2263.033 2263.033 0 0 0-25.5-37.5 18176.427 18176.427 0 0 1-25.5 37 342.787 342.787 0 0 1-37-1 3293.536 3293.536 0 0 1 43-63 3423.133 3423.133 0 0 1-40-57.5c13-.667 26-.667 39 0a1018.308 1018.308 0 0 0 21 30.5 793.153 793.153 0 0 0 21-31Z"/><path style="opacity:1" fill="#9b9b9b" d="M822.5 181.5c12.506-1.325 25.173-1.325 38 0-.124.607-.457.94-1 1a342.787 342.787 0 0 0-37-1Z"/><path style="opacity:1" fill="#737373" d="M427.5 175.5c15.016-.829 29.682 1.004 44 5.5 11.572 4.896 18.738 13.396 21.5 25.5l1 80a76.38 76.38 0 0 0 3.5 17 4.933 4.933 0 0 1-1 2.5c-12 .667-24 .667-36 0a27.505 27.505 0 0 1-4-8.5c-6.689 5.513-14.355 9.013-23 10.5-14.979 3.319-29.312 1.652-43-5-14.194-10.242-19.694-24.075-16.5-41.5 3.901-14.9 13.401-24.066 28.5-27.5a608.194 608.194 0 0 1 42-7c10.697-2.396 13.53-8.562 8.5-18.5-4.575-4.422-10.075-6.089-16.5-5-12.85-1.078-20.183 4.756-22 17.5a225.05 225.05 0 0 1-36.5-.5c.409-19.103 9.575-32.269 27.5-39.5 7.323-2.425 14.657-4.258 22-5.5Z"/><path style="opacity:1" fill="#fdfdfd" d="M494.5 302.5c-11.235 1.319-22.569 1.319-34 0a61.568 61.568 0 0 0-2-10c-9.438 8.988-20.771 13.822-34 14.5-18.59 3.147-33.424-2.687-44.5-17.5-6.724-14.63-5.724-28.63 3-42a47.736 47.736 0 0 1 16.5-10.5 152.814 152.814 0 0 1 24-4.5c6.979.131 13.646-.869 20-3 13.369-2.251 17.203-9.584 11.5-22a17.842 17.842 0 0 0-5.5-4.5c-7.939-2.663-15.939-2.996-24-1-7.796 3.286-11.796 9.119-12 17.5h-34c1.67-20.18 12.336-33.014 32-38.5a79.066 79.066 0 0 1 10-2c11-.667 22-.667 33 0 13.111 1.139 23.945 6.639 32.5 16.5a32.473 32.473 0 0 1 4 10l1 80a92.568 92.568 0 0 0 2.5 17Z"/><path style="opacity:1" fill="#737373" d="M557.5 144.5v35h23c.617.111 1.117.444 1.5 1 .667 8.333.667 16.667 0 25a153.949 153.949 0 0 1-24.5 1 749.783 749.783 0 0 0 1.5 66c.5 1.833 1.667 3 3.5 3.5a1207.4 1207.4 0 0 0 19.5.5c.667 9.667.667 19.333 0 29a83.235 83.235 0 0 1-20.5 2c-14.879 2.098-27.379-2.236-37.5-13l-3-6a1161.135 1161.135 0 0 1-1.5-82c-6.342.166-12.675 0-19-.5l-1.5-1.5a102.191 102.191 0 0 1 .5-24.5c6.658-.5 13.325-.666 20-.5a338.482 338.482 0 0 1 1-36.5c12-.667 24-.667 36 0 .556.383.889.883 1 1.5Z"/><path style="opacity:1" fill="#d3d3d3" d="M579.5 181.5h1v23h-25c7.816-.992 15.816-1.326 24-1v-22Z"/><path style="opacity:1" fill="#ababab" d="M521.5 180.5v1h-20v22c6.854-.324 13.521.009 20 1h-21v-24h21Z"/><path style="opacity:1" fill="#e9e9e9" d="M555.5 144.5v1h-33c.328 12.178-.005 24.178-1 36v-37h34Z"/><path style="opacity:1" fill="#fefefe" d="M555.5 145.5v36h24v22c-8.184-.326-16.184.008-24 1a838.012 838.012 0 0 0 1.5 69c.833 2.167 2.333 3.667 4.5 4.5 6.052.79 12.052.624 18-.5a183.078 183.078 0 0 1 1 27 149.322 149.322 0 0 1-38-.5c-11.724-3.057-18.558-10.557-20.5-22.5-.5-25.665-.667-51.331-.5-77-6.479-.991-13.146-1.324-20-1v-22h20c.995-11.822 1.328-23.822 1-36h33Z"/><path style="opacity:1" fill="#909090" d="M555.5 144.5c.995 11.822 1.328 23.822 1 36 8.184-.326 16.184.008 24 1h-25v-37Z"/><path style="opacity:1" fill="#d5d5d5" d="M443.5 229.5c-6.354 2.131-13.021 3.131-20 3a202.201 202.201 0 0 1 20-3Z"/><path style="opacity:1" fill="#6c6c6c" d="M238.5 175.5c18.105-1.975 32.771 4.025 44 18 16.779-18.192 36.779-22.692 60-13.5 14.381 6.897 22.214 18.397 23.5 34.5.825 30.375.659 60.709-.5 91a177.917 177.917 0 0 1-37.5 0l-1-83c-.824-11.155-6.824-16.155-18-15-11.289-.052-17.622 5.615-19 17a3358.43 3358.43 0 0 1-1.5 81 177.917 177.917 0 0 1-37.5 0l-1-86c-2.141-8.91-7.808-12.91-17-12-10.781.109-17.448 5.442-20 16l-1 81-1.5 1.5a225.05 225.05 0 0 1-36.5-.5 3904.548 3904.548 0 0 1 0-125 212.903 212.903 0 0 1 35.5-.5 73.396 73.396 0 0 1 1.5 11.5c7.382-8.579 16.548-13.912 27.5-16Z"/><path style="opacity:1" fill="#c5c5c5" d="M363.5 215.5a1981.572 1981.572 0 0 1 1 89h-35v-76a1406.593 1406.593 0 0 1 1 75h33v-88Z"/><path style="opacity:1" fill="#c9c9c9" d="M176.5 181.5v122h33a1482.71 1482.71 0 0 1 1-77v78h-35c-.332-41.17.001-82.17 1-123Z"/><path style="opacity:1" fill="#fefefe" d="M363.5 215.5v88h-33c.331-25.172-.002-50.172-1-75-.195-19.451-9.862-26.951-29-22.5-8.83 4.819-13.164 12.319-13 22.5a1406.593 1406.593 0 0 0-1 75h-33a1600.65 1600.65 0 0 0-1-80c-.776-12.441-7.442-18.774-20-19-13.025 1.691-20.358 9.025-22 22a1482.71 1482.71 0 0 0-1 77h-33v-122h31a64.873 64.873 0 0 0 1 16c.607-.124.94-.457 1-1 14.22-17.79 32.22-22.957 54-15.5 8.031 3.362 14.198 8.862 18.5 16.5 15.846-19.612 35.679-24.779 59.5-15.5 13.96 6.739 21.293 17.906 22 33.5Z"/><path style="opacity:1" fill="#b8b8b8" d="m207.5 181.5 2 15c-.06.543-.393.876-1 1a64.873 64.873 0 0 1-1-16Z"/><path style="opacity:1" fill="#c6c6c6" d="M252.5 223.5a1600.65 1600.65 0 0 1 1 80h33c-.331-25.172.002-50.172 1-75v76h-35v-81Z"/><path style="opacity:1" fill="#797979" d="M661.5 175.5c5.167-.41 10.167.257 15 2a307.162 307.162 0 0 1 1 35c-11.626-2.616-22.626-1.116-33 4.5-7.069 6.185-10.902 14.018-11.5 23.5l-1 65a225.05 225.05 0 0 1-36.5.5 4016.81 4016.81 0 0 1-1-126.5h36c-.166 5.344.001 10.677.5 16 7.954-10.134 18.12-16.801 30.5-20Z"/><path style="opacity:1" fill="#a0a0a0" d="M675.5 179.5c1.323 10.507 1.323 21.174 0 32-.607-.124-.94-.457-1-1 .994-10.153 1.328-20.486 1-31Z"/><path style="opacity:1" fill="#fefefe" d="M675.5 179.5c.328 10.514-.006 20.847-1 31-28.69-4.308-43.357 8.025-44 37a784.68 784.68 0 0 0-1 56h-33v-122h32c-.166 7.341 0 14.674.5 22 .717-.544 1.217-1.211 1.5-2 7.509-14.848 19.675-22.515 36.5-23 3.021.002 5.854.336 8.5 1Z"/><path style="opacity:1" fill="#989898" d="m628.5 181.5 2 20c-.283.789-.783 1.456-1.5 2a242.43 242.43 0 0 1-.5-22Z"/><path style="opacity:1" fill="#797979" d="M456.5 244.5c1.154 6.487 1.321 13.154.5 20-3.572 13.896-12.572 20.562-27 20-15.258 1.057-21.925-5.943-20-21 3.454-6.118 8.621-9.951 15.5-11.5l24-4c2.674-.67 5.007-1.837 7-3.5Z"/><path style="opacity:1" fill="#020202" d="M453.5 248.5c1.265 1.014 1.931 2.514 2 4.5.62 22.86-10.38 32.527-33 29-11.801-4.593-14.134-12.259-7-23l5-3a419.55 419.55 0 0 0 33-7.5Z"/><path style="opacity:1" fill="#d6d6d6" d="M460.5 302.5c11.431 1.319 22.765 1.319 34 0 .543.06.876.393 1 1l-17.5 1c-6.207-.004-12.04-.671-17.5-2Z"/><path style="opacity:1" fill="#dcdcdc" d="M630.5 247.5v57c-11.512.328-22.846-.005-34-1h33a784.68 784.68 0 0 1 1-56Z"/><path style="opacity:1" fill="#d8d8d8" d="M738.5 302.5a342.787 342.787 0 0 0 37 1c-12.506 1.325-25.173 1.325-38 0 .124-.607.457-.94 1-1Z"/></svg>